<svg width="18" height="13" viewBox="0 0 18 13" fill="none" xmlns="http://www.w3.org/2000/svg">
<path d="M16.2556 0.300774C16.4284 0.121023 16.6655 -0.00600769 16.9187 0.000219273C17.3719 -0.0105741 17.7847 0.388782 17.7975 0.844181C17.8219 1.13519 17.6647 1.40419 17.4589 1.59557C14.0484 5.02579 10.6404 8.45851 7.23111 11.89C7.05749 12.0623 6.89294 12.2619 6.65622 12.3475C6.33456 12.472 5.95433 12.367 5.71926 12.1187C4.04081 10.4312 2.36442 8.74246 0.687613 7.05371C0.487601 6.86026 0.265731 6.65352 0.217069 6.36418C0.118506 5.90089 0.459558 5.41062 0.918967 5.32925C1.21218 5.26491 1.51859 5.38281 1.72561 5.59369C2.9562 6.83203 4.18597 8.07119 5.41697 9.3087C5.73246 9.62212 6.03763 9.94634 6.36177 10.2506C6.94037 9.69104 7.49834 9.10944 8.06909 8.54112C10.7979 5.7942 13.5272 3.0477 16.2556 0.300774Z" fill="#FAB31B"/>
</svg>
